<svg data-name="Layer 1" xmlns="http://www.w3.org/2000/svg"><path d="M442.63 279.41l-7 16.31-42.86 56.85s-29.36 31.68-13.05 33.55 27.03-29.36 27.03-29.36l50.32-49.86 5.6-22.83z" fill="#9f616a"/><path d="M464.06 213.24l-6.75 1.9s-30.33 80.57-27.54 90.35 15.38 21.9 20.97 20.97 13.32-113.22 13.32-113.22z" fill="#6c63ff"/><path d="M558.44 627.3s-2.97 14.86 5.95 8.91 13.56-17.45 13.56-17.45z" fill="#2f2e41"/><path d="M452.88 292s-94.6 333.63-61.04 343.41 82.94-.93 82.47-7.45-8.85-135.6-8.85-135.6 48.92 171.48 109.5 131.4 47.06-47.53 41.47-50.32-89.93-135.6-89.46-160.3-.94-102.04-11.19-113.7z" fill="#2f2e41"/><path fill="#3f3d56" d="M661.53 646.15H87.46v-2.18h574.47l-.4 2.18z"/><path d="M512.96 173.37a19.57 19.57 0 01-2.43-26.38c-.4.37-.78.75-1.15 1.16a19.57 19.57 0 0029.03 26.25c.37-.4.71-.83 1.04-1.26a19.57 19.57 0 01-26.5.23z" fill="#2f2e41"/><circle cx="511.12" cy="137.76" r="40.31" fill="#2f2e41"/><path d="M402.55 634.01s-10.71 10.72 0 10.72 20.97-6.99 20.97-6.99z" fill="#2f2e41"/><path d="M485.5 162.92s6.98 28.89 1.86 34.48-16.31 9.79-16.31 9.79l1.86 52.19s21.44-7.46 22.37-8.4 20.04-31.21 20.04-31.21l18.64-17.7s-28.43-13.52-20.04-36.82-28.42-2.33-28.42-2.33z" fill="#9f616a"/><circle cx="771.77" cy="276.33" r="24.23" transform="rotate(-80.78 562.66 370.98)" fill="#9f616a"/><path d="M515.78 299.45s10.72-35.41 15.85-40.07 17.7-48.46 17.7-48.46-7.92-10.72-14.44-10.72-12.58 2.33-20.04 9.32c-3.51 3.29-9.91 6.91-15.7 9.82a17.38 17.38 0 01-23.53-7.85c-1.16-2.46-1.54-4.82-.38-6.63 0 0-17.24 4.66-18.17 11.18s0 20.04-1.4 22.83-5.59 7-3.72 24.7-1.95 40.1-1.95 40.1c17.4 16.6 41.52 6.35 65.78-4.22z" fill="#6c63ff"/><ellipse cx="502.5" cy="127.74" rx="20.5" ry="13.98" fill="#2f2e41"/><circle cx="537.45" cy="107.24" r="19.57" fill="#2f2e41"/><path d="M551.43 121.22a19.57 19.57 0 01-19.5-17.94c-.04.53-.07 1.08-.07 1.63a19.57 19.57 0 0039.14.01v-.01c0-.55-.03-1.1-.07-1.63a19.57 19.57 0 01-19.5 17.94z" fill="#2f2e41"/><path fill="#6c63ff" d="M505.53 420.53h-6.51L486 534.01l42.9-1.44-23.38-112.04z"/><path opacity=".2" style="isolation:isolate" d="M505.53 420.53h-6.51L486 534.01l42.9-1.44-23.38-112.04z"/><path fill="#6c63ff" d="M503.36 419.08l-7.95 114.21 97.39 7.23 7.95-111.32-97.4-10.12z"/><circle cx="536.15" cy="429.2" r="1.45" opacity=".2" style="isolation:isolate"/><circle cx="566.51" cy="432.81" r="1.45" opacity=".2" style="isolation:isolate"/><path d="M566.87 432.82h-.72c0-.31.5-30.8-17-33.61-3.45-.55-6.27.23-8.38 2.32-7.23 7.17-4.24 27.42-4.21 27.62l-.71.11c-.13-.85-3.07-20.82 4.42-28.24 2.28-2.27 5.32-3.12 9-2.53 18.12 2.9 17.6 34.02 17.6 34.33z" fill="#3f3d56"/><path d="M550.73 275.22l-2.33 26.1 4.66 78.28s10.72 39.6-5.6 38.67-10.24-41.47-10.24-41.47l-7.46-90.86z" fill="#9f616a"/><path d="M537.22 204.4l12.11 6.52s16.31 110.84 7 121.56-28.43 14.91-29.36 10.72-4.2-89.42-4.2-89.42z" fill="#6c63ff"/><path d="M65.96 0H52.37a1.8 1.8 0 00-1.8 1.8v5.97a1.8 1.8 0 001.8 1.8h2.25v8.93h9.09V9.57h2.25a1.8 1.8 0 001.8-1.8V1.8a1.8 1.8 0 00-1.8-1.8z" fill="#e6e6e6"/><path d="M79.57 54.59a69.86 69.86 0 01-12.15-41.42 1.47 1.47 0 00-1.15-1.47V9.12H51.92v2.54h-.2a1.47 1.47 0 00-1.47 1.48v.1q1.7 23.64-11.45 42.4a4.06 4.06 0 00-.74 2.46l1.57 48.55a4.2 4.2 0 004.17 4.05h32.46a4.2 4.2 0 004.17-4.12l.6-47.14a8.5 8.5 0 00-1.46-4.85z" fill="#e6e6e6"/><path d="M74.43 70.71H46.18a2.9 2.9 0 00-2.87 3.34l4.27 27.76H72.1l5.18-27.66a2.9 2.9 0 00-2.85-3.44z" fill="#fff"/><path d="M217.23 145.42h-13.59a1.8 1.8 0 00-1.8 1.8v5.96a1.8 1.8 0 001.8 1.8h2.26v8.94h9.08v-8.94h2.25a1.8 1.8 0 001.8-1.8v-5.96a1.8 1.8 0 00-1.8-1.8z" fill="#e6e6e6"/><path d="M230.84 200a69.86 69.86 0 01-12.15-41.42 1.47 1.47 0 00-1.15-1.47v-2.57h-14.35v2.54h-.2a1.47 1.47 0 00-1.47 1.47v.1q1.7 23.65-11.45 42.41a4.06 4.06 0 00-.73 2.46l1.56 48.54a4.2 4.2 0 004.17 4.06h32.46a4.2 4.2 0 004.17-4.13l.6-47.13a8.5 8.5 0 00-1.46-4.86z" fill="#e6e6e6"/><path d="M225.7 216.13h-28.25a2.9 2.9 0 00-2.87 3.34l4.27 27.75h24.52l5.19-27.66a2.9 2.9 0 00-2.86-3.43z" fill="#fff"/><path d="M46.86 351H40.4a.85.85 0 00-.85.85v2.82a.85.85 0 00.85.86h1.07v4.24h4.3v-4.24h1.08a.85.85 0 00.85-.86v-2.82a.85.85 0 00-.85-.86z" fill="#e6e6e6"/><path d="M53.31 376.88a33.14 33.14 0 01-5.76-19.64.7.7 0 00-.55-.7v-1.22h-6.8v1.2h-.1a.7.7 0 00-.7.7v.05a30.24 30.24 0 01-5.43 20.12 1.93 1.93 0 00-.35 1.16l.75 23.03a2 2 0 001.97 1.92h15.4a2 2 0 001.98-1.96l.29-22.35a4.03 4.03 0 00-.7-2.3z" fill="#e6e6e6"/><path fill="#fff" d="M36.41 385.35H51.1v7.35H36.41z"/><path d="M76.86 351h-6.44a.85.85 0 00-.86.85v2.82a.85.85 0 00.86.86h1.07v4.24h4.3v-4.24h1.07a.85.85 0 00.86-.86v-2.82a.85.85 0 00-.86-.86z" fill="#e6e6e6"/><path d="M83.32 376.88a33.14 33.14 0 01-5.77-19.64.7.7 0 00-.54-.7v-1.22h-6.8v1.2h-.1a.7.7 0 00-.7.7v.05a30.24 30.24 0 01-5.43 20.12 1.93 1.93 0 00-.35 1.16l.74 23.03a2 2 0 001.98 1.92h15.4a2 2 0 001.98-1.96L84 379.2a4.03 4.03 0 00-.7-2.3z" fill="#e6e6e6"/><path fill="#fff" d="M66.41 385.35H81.1v7.35H66.41z"/><path d="M106.87 351h-6.45a.85.85 0 00-.85.85v2.82a.85.85 0 00.85.86h1.07v4.24h4.31v-4.24h1.07a.85.85 0 00.85-.86v-2.82a.85.85 0 00-.85-.86z" fill="#e6e6e6"/><path d="M113.32 376.88a33.14 33.14 0 01-5.76-19.64.7.7 0 00-.55-.7v-1.22h-6.8v1.2h-.1a.7.7 0 00-.7.7v.05a30.24 30.24 0 01-5.43 20.12 1.93 1.93 0 00-.34 1.16l.74 23.03a2 2 0 001.98 1.92h15.4a2 2 0 001.97-1.96l.29-22.35a4.03 4.03 0 00-.7-2.3z" fill="#e6e6e6"/><path fill="#fff" d="M96.42 385.35h14.69v7.35H96.42z"/><path d="M193.63 294.74h-13.6a1.8 1.8 0 00-1.8 1.8v5.96a1.8 1.8 0 001.8 1.8h2.26v8.94h9.08v-8.94h2.26a1.8 1.8 0 001.8-1.8v-5.96a1.8 1.8 0 00-1.8-1.8z" fill="#e6e6e6"/><path d="M207.24 349.32a69.86 69.86 0 01-12.16-41.42 1.47 1.47 0 00-1.15-1.47v-2.58h-14.35v2.55h-.2a1.47 1.47 0 00-1.47 1.47v.1q1.7 23.65-11.45 42.41a4.06 4.06 0 00-.73 2.46l1.57 48.54a4.2 4.2 0 004.16 4.06h32.46a4.2 4.2 0 004.17-4.13l.6-47.13a8.5 8.5 0 00-1.45-4.86z" fill="#e6e6e6"/><path d="M202.1 365.45h-28.26a2.9 2.9 0 00-2.86 3.34l4.27 27.75h24.51l5.19-27.66a2.9 2.9 0 00-2.85-3.43z" fill="#fff"/><path d="M201.04 116.95h-81c5.66-30.62 4.36-67.59 0-107.35h81c-4.24 39.76-5.5 76.73 0 107.35z" fill="#e6e6e6"/><circle cx="161.03" cy="60.35" r="19.52" fill="#fff"/><path d="M126.87 259.44h-81c5.66-30.62 4.36-67.6 0-107.35h81c-4.24 39.76-5.51 76.73 0 107.35z" fill="#e6e6e6"/><circle cx="86.86" cy="202.84" r="19.52" fill="#fff"/><path d="M246.91 123.78h-81c5.66-30.62 4.36-67.59 0-107.35h81c-4.24 39.76-5.5 76.74 0 107.35z" fill="#e6e6e6"/><circle cx="206.9" cy="67.18" r="19.52" fill="#fff"/><path d="M246.91 118.9h-81c5.66-30.61 4.36-67.59 0-107.35h81c-4.24 39.76-5.5 76.74 0 107.35z" fill="#e6e6e6"/><circle cx="206.9" cy="62.3" r="19.52" fill="#fff"/><path d="M246.91 123.78h-81c5.66-30.62 4.36-67.59 0-107.35h81c-4.24 39.76-5.5 76.74 0 107.35z" fill="#e6e6e6"/><circle cx="206.9" cy="67.18" r="19.52" fill="#fff"/><path fill="#e6e6e6" d="M0 111.1h265.46v29.28H0zM0 256.51h265.46v29.28H0zM0 401.93h265.46v29.28H0z"/></svg>
